<?xml version="1.0" standalone="no"?>
<!DOCTYPE svg PUBLIC "-//W3C//DTD SVG 20010904//EN"
 "http://www.w3.org/TR/2001/REC-SVG-20010904/DTD/svg10.dtd">
<svg version="1.0" xmlns="http://www.w3.org/2000/svg"
 width="1294.000000pt" height="863.000000pt" viewBox="0 0 1294.000000 863.000000"
 preserveAspectRatio="xMidYMid meet">

<g transform="translate(0.000000,863.000000) scale(0.100000,-0.100000)"
fill="#000000" stroke="none">
<path d="M6340 8010 c-58 -4 -163 -11 -235 -15 -71 -4 -133 -12 -136 -18 -4
-5 -4 -18 -1 -29 5 -19 11 -20 79 -16 40 3 76 1 79 -3 3 -5 13 -126 24 -269
11 -143 21 -264 24 -269 6 -9 178 -2 188 8 3 3 0 80 -7 171 -7 91 -16 213 -20
271 l-7 106 47 6 c26 4 60 7 76 7 15 0 31 5 34 10 11 17 -5 50 -23 48 -9 0
-64 -4 -122 -8z"/>
<path d="M6636 8002 c-13 -22 -51 -591 -40 -602 5 -5 45 -10 89 -12 l80 -3 7
45 c7 47 25 280 35 463 l6 107 -40 0 c-22 0 -60 3 -85 6 -28 4 -48 2 -52 -4z"/>
<path d="M7016 7953 c-3 -10 -33 -143 -67 -297 -51 -230 -59 -280 -48 -287 35
-23 43 -6 83 174 22 97 44 177 50 177 6 0 37 -67 70 -148 32 -81 71 -174 86
-208 l27 -61 63 -12 c34 -7 66 -9 71 -4 4 4 35 130 68 278 34 149 64 278 67
287 6 21 -33 45 -48 30 -6 -6 -29 -94 -52 -196 -23 -103 -46 -187 -51 -187 -6
0 -27 39 -47 88 -20 48 -43 104 -52 123 -8 19 -33 78 -55 130 -22 52 -48 100
-58 107 -10 6 -37 14 -60 18 -35 5 -42 4 -47 -12z"/>
<path d="M5766 7942 c-4 -7 67 -313 89 -383 11 -34 -15 -21 -83 44 -37 34
-121 111 -188 169 l-120 106 -55 -12 c-43 -10 -54 -17 -53 -32 1 -10 25 -111
53 -224 28 -113 59 -236 69 -275 16 -64 20 -70 45 -73 17 -2 27 1 27 10 0 7
-18 89 -41 181 -23 92 -39 171 -35 174 3 4 19 -5 34 -18 213 -194 313 -279
330 -279 39 0 122 23 122 34 0 11 -106 449 -131 544 -9 34 -16 42 -35 42 -12
0 -25 -4 -28 -8z"/>
<path d="M7842 7722 c-10 -9 -88 -91 -173 -182 -85 -91 -175 -187 -201 -215
-55 -57 -59 -72 -22 -81 21 -6 34 1 73 40 26 25 52 46 58 46 6 0 48 -17 93
-37 l82 -37 -6 -35 c-3 -20 -8 -51 -12 -68 -6 -32 -5 -34 52 -58 33 -14 69
-31 81 -37 13 -6 25 -9 27 -7 3 3 9 31 15 64 6 33 15 85 20 115 5 30 19 107
30 171 12 63 27 149 35 190 8 41 12 77 9 82 -2 4 -20 14 -39 22 -19 8 -49 22
-68 30 -31 13 -36 13 -54 -3z m-32 -150 c0 -33 -44 -238 -52 -243 -9 -6 -120
39 -135 55 -6 6 167 196 179 196 4 0 8 -4 8 -8z"/>
<path d="M4943 7686 c-29 -12 -58 -27 -64 -33 -8 -8 -2 -77 25 -265 19 -139
39 -277 42 -306 8 -61 16 -69 50 -48 22 15 23 21 17 59 -15 88 -16 85 79 127
l87 37 50 -52 51 -53 77 32 c43 18 78 38 78 44 0 18 -409 481 -425 481 -8 -1
-39 -11 -67 -23z m44 -194 c6 -11 41 -53 77 -94 36 -42 66 -81 66 -87 0 -12
-102 -61 -126 -61 -15 0 -17 8 -34 130 -6 47 -14 95 -17 108 -6 27 17 30 34 4z"/>
<path d="M4437 7385 c-30 -11 -262 -162 -300 -195 -4 -3 12 -31 35 -62 24 -30
70 -91 103 -134 102 -135 236 -304 241 -304 2 0 36 23 75 51 63 46 69 53 57
69 -7 10 -48 64 -91 119 -70 90 -76 101 -61 115 20 21 58 30 88 22 14 -3 56
-44 98 -93 41 -49 81 -89 90 -91 19 -4 158 86 158 102 0 6 -15 21 -33 33 -17
12 -56 47 -85 77 -56 57 -91 72 -142 61 -36 -8 -36 -4 -9 52 34 69 8 142 -61
178 -36 18 -112 18 -163 0z m37 -116 c32 -25 56 -69 56 -102 0 -26 -54 -87
-77 -87 -14 0 -133 146 -133 165 0 16 59 44 96 44 17 1 43 -8 58 -20z"/>
<path d="M8415 7089 c-115 -121 -210 -224 -210 -228 0 -11 116 -111 129 -111
7 0 47 38 90 85 42 47 82 85 88 85 6 0 34 -17 62 -39 132 -100 219 -112 302
-39 71 63 85 136 40 213 -24 40 -263 255 -283 255 -4 0 -102 -100 -218 -221z
m357 34 c34 -32 37 -74 9 -119 -29 -48 -87 -88 -127 -88 -32 0 -84 29 -91 50
-4 13 154 184 170 184 6 0 24 -12 39 -27z"/>
<path d="M3812 6877 l-52 -53 156 -250 c86 -137 161 -257 167 -266 6 -9 8 -20
4 -24 -11 -11 -460 26 -473 39 -7 7 -27 56 -46 110 -19 54 -38 99 -43 100 -5
1 -17 -11 -26 -28 -17 -30 -16 -32 41 -185 33 -85 57 -156 55 -158 -2 -2 -53
26 -113 62 -61 36 -115 66 -120 66 -15 0 -105 -128 -98 -139 3 -5 63 -44 134
-87 70 -42 185 -112 255 -156 70 -43 134 -81 141 -84 7 -3 32 24 59 65 26 39
47 73 47 75 0 3 -47 33 -105 68 -101 61 -127 84 -105 98 5 3 78 0 161 -7 83
-8 152 -12 154 -11 1 2 34 49 74 106 l72 104 -23 36 c-12 20 -28 47 -36 59
-13 21 -10 26 49 88 34 36 68 65 76 65 7 0 36 -11 63 -25 27 -14 55 -25 63
-25 16 0 117 101 117 117 0 11 -531 278 -574 289 -16 4 -34 -9 -74 -49z m226
-210 c61 -31 112 -61 112 -65 0 -17 -100 -106 -109 -97 -18 19 -141 209 -141
217 0 14 15 8 138 -55z"/>
<path d="M8880 6689 c-274 -219 -257 -203 -239 -227 14 -21 119 -139 221 -251
l59 -65 21 22 21 21 -60 68 c-34 37 -70 77 -82 87 -28 25 -27 50 3 69 13 9 53
41 89 71 36 31 70 56 76 56 5 0 34 -29 63 -64 54 -66 76 -77 98 -51 10 12 7
21 -18 52 -16 21 -42 49 -56 62 -14 14 -26 32 -26 40 1 9 33 40 72 70 l71 54
78 -84 77 -84 21 20 21 21 -97 110 c-54 60 -112 126 -130 147 -18 20 -38 37
-45 36 -7 0 -114 -82 -238 -180z"/>
<path d="M6175 6755 c-428 -58 -814 -224 -1155 -495 -115 -92 -322 -306 -410
-425 -161 -217 -273 -430 -363 -695 -169 -494 -163 -1082 16 -1580 186 -517
526 -943 978 -1228 344 -216 689 -327 1091 -351 281 -17 526 13 822 99 199 58
476 200 667 341 514 379 847 928 956 1574 25 154 26 612 0 760 -75 434 -233
793 -496 1130 -70 90 -245 270 -341 350 -284 237 -654 417 -1006 490 -219 45
-553 58 -759 30z m352 -483 c183 -146 330 -409 384 -687 18 -93 18 -334 0
-404 -31 -123 -155 -388 -246 -525 -25 -38 -45 -72 -45 -76 0 -4 24 -13 54
-20 l54 -13 73 64 c217 189 428 321 616 386 146 50 347 33 546 -46 95 -38 213
-97 222 -111 11 -18 -97 -162 -193 -257 -153 -150 -344 -267 -502 -307 -197
-50 -462 -40 -728 26 -8 1 -17 -4 -21 -12 -4 -8 -19 -37 -32 -65 -13 -27 -55
-81 -93 -119 l-69 -69 3 -216 c1 -119 5 -274 9 -346 l6 -130 25 3 c45 4 74 22
101 60 95 133 323 353 466 450 199 135 419 187 686 163 189 -18 367 -54 367
-76 0 -7 -53 -63 -117 -126 -336 -325 -628 -534 -833 -597 -137 -43 -228 -49
-430 -29 l-25 2 -1 -121 c0 -66 -4 -126 -8 -132 -9 -15 -122 -16 -131 -1 -4 5
-8 60 -8 122 l-2 112 -65 0 -65 0 -5 -115 -5 -115 -49 -3 c-32 -2 -52 1 -58
10 -5 7 -7 60 -6 118 l3 105 -65 0 -65 0 -5 -120 -5 -120 -58 -3 c-87 -4 -89
0 -86 137 l3 116 -49 -5 c-387 -39 -677 108 -1202 607 -84 79 -153 150 -153
158 0 22 175 58 367 76 141 13 290 1 413 -32 156 -42 316 -144 514 -329 49
-45 208 -226 236 -268 15 -23 94 -57 109 -47 10 5 20 248 23 505 l1 186 -74
75 c-44 44 -81 93 -93 119 -27 67 -33 75 -48 72 -266 -66 -531 -76 -728 -26
-158 40 -345 154 -500 306 -95 93 -206 240 -195 257 20 33 272 138 400 167
123 28 270 24 368 -9 189 -65 401 -198 620 -390 l68 -60 55 13 c29 7 54 16 54
20 0 4 -22 40 -49 81 -102 155 -221 419 -247 549 -13 65 -15 114 -11 210 11
248 96 490 239 683 57 77 195 207 220 207 9 0 38 -17 65 -38z m-1274 -3284
c58 -29 128 -47 220 -54 l79 -7 38 -51 c79 -104 191 -166 301 -166 61 0 135
15 154 32 20 17 46 6 86 -37 61 -66 172 -118 261 -123 118 -7 207 29 306 122
l53 49 65 -23 c87 -30 195 -25 269 12 61 31 132 93 168 146 28 39 28 39 112
46 82 7 180 32 238 62 49 26 32 -9 -30 -60 -66 -53 -168 -106 -207 -106 -20 0
-36 -14 -76 -69 -59 -81 -143 -143 -228 -167 -66 -19 -184 -15 -251 9 l-44 16
-61 -63 c-38 -39 -84 -74 -121 -92 -55 -26 -69 -29 -165 -29 -94 0 -111 3
-165 28 -37 17 -85 52 -125 92 l-65 64 -45 -16 c-63 -22 -180 -28 -237 -13
-94 25 -187 93 -245 179 -17 25 -32 47 -33 49 -1 1 -28 9 -61 18 -65 17 -137
59 -201 118 -63 57 -59 70 10 34z"/>
<path d="M6408 6074 c-126 -199 -183 -396 -181 -634 0 -154 13 -232 59 -368
38 -115 151 -332 172 -332 7 0 81 126 120 205 27 54 69 183 89 269 23 99 22
364 0 464 -37 161 -117 347 -186 431 l-29 35 -44 -70z"/>
<path d="M5135 4875 c-71 -16 -164 -50 -189 -68 -17 -12 -12 -20 59 -95 91
-97 222 -199 317 -247 136 -68 286 -80 483 -40 78 16 215 71 215 85 0 13 -83
83 -180 151 -121 87 -239 153 -335 191 -70 27 -95 31 -195 34 -74 2 -136 -2
-175 -11z"/>
<path d="M7485 4874 c-90 -21 -265 -113 -400 -210 -116 -84 -185 -141 -185
-155 0 -9 105 -54 170 -72 70 -20 195 -37 269 -37 76 0 198 32 269 70 85 45
217 148 307 240 91 93 91 91 -14 131 -130 49 -294 62 -416 33z"/>
<path d="M6429 4503 c-96 -106 -105 -133 -68 -206 47 -91 86 -126 129 -112 25
8 86 92 105 145 13 36 13 45 1 68 -17 32 -114 142 -126 142 -4 0 -23 -17 -41
-37z"/>
<path d="M4978 3884 c-16 -3 -28 -9 -28 -13 0 -19 250 -210 364 -277 99 -59
180 -93 326 -137 139 -42 362 -89 373 -78 11 11 -106 154 -199 240 -163 152
-275 209 -484 246 -89 16 -305 27 -352 19z"/>
<path d="M7730 3883 c-288 -27 -445 -94 -629 -267 -62 -59 -201 -222 -201
-236 0 -13 -10 -13 111 11 300 59 492 131 669 248 93 62 290 218 290 230 0 18
-126 25 -240 14z"/>
<path d="M9360 6328 c-69 -39 -159 -90 -200 -113 -41 -23 -106 -60 -144 -81
-38 -22 -70 -44 -73 -50 -4 -12 76 -144 88 -144 4 0 62 32 129 70 67 39 127
70 132 70 18 0 37 -34 38 -67 0 -36 -20 -55 -142 -134 -43 -28 -78 -55 -78
-61 0 -15 92 -158 101 -158 5 0 13 8 18 18 5 10 40 40 78 66 84 59 105 87 105
134 0 51 5 55 40 31 65 -47 170 -28 214 38 28 42 24 125 -9 190 -29 57 -152
249 -164 256 -4 3 -64 -27 -133 -65z m204 -142 c24 -51 20 -78 -16 -113 -41
-38 -90 -55 -122 -43 -27 10 -76 59 -76 76 0 12 165 112 186 113 7 1 19 -14
28 -33z"/>
<path d="M9764 5815 c-4 -9 3 -38 15 -65 36 -84 69 -64 -331 -201 -134 -45
-188 -68 -187 -79 0 -8 13 -46 29 -85 21 -53 33 -70 47 -68 10 0 130 40 268
87 137 48 256 85 264 84 8 -2 24 -29 35 -60 12 -31 24 -60 28 -63 10 -11 48 5
48 20 0 14 -144 395 -161 428 -12 21 -48 23 -55 2z"/>
<path d="M3016 5603 c-10 -26 11 -37 124 -68 58 -15 139 -36 180 -47 41 -11
81 -22 88 -24 6 -2 12 -7 12 -11 0 -4 -105 -39 -233 -77 -127 -38 -240 -73
-249 -78 -17 -8 -42 -80 -36 -100 4 -10 50 -24 333 -99 44 -12 123 -34 175
-48 53 -15 101 -26 108 -23 7 2 12 14 12 27 0 18 -8 25 -42 34 -24 6 -101 27
-172 46 -71 19 -136 35 -144 35 -22 0 -8 24 19 32 13 5 114 34 223 66 l199 59
18 59 c10 32 15 62 10 67 -8 8 -133 43 -503 141 -114 31 -114 31 -122 9z"/>
<path d="M9380 5147 c0 -34 16 -43 82 -51 31 -4 61 -13 66 -19 9 -10 32 -134
32 -167 0 -6 -30 -24 -66 -40 -61 -28 -65 -32 -60 -57 3 -16 8 -49 12 -74 3
-25 9 -51 13 -57 5 -8 100 28 296 113 160 68 296 127 303 132 16 10 7 123 -12
147 -7 10 -57 20 -151 31 -77 9 -169 20 -205 25 -36 5 -108 14 -160 20 -52 6
-107 13 -122 16 -24 5 -28 2 -28 -19z m385 -87 c60 -6 112 -13 114 -16 9 -9
-16 -23 -109 -60 -52 -20 -99 -41 -104 -45 -20 -18 -44 -9 -50 19 -21 112 -18
127 18 118 11 -3 70 -10 131 -16z"/>
<path d="M3440 4960 c-25 -4 -168 -23 -318 -41 -219 -27 -275 -37 -282 -49 -5
-9 -10 -45 -12 -80 l-3 -63 299 -128 c164 -71 303 -126 307 -123 5 3 9 16 9
30 0 21 -10 30 -66 55 -61 28 -65 32 -60 57 3 15 8 50 12 77 10 74 15 79 90
90 l68 10 13 75 c12 74 11 101 -4 99 -4 -1 -28 -5 -53 -9z m-178 -261 c-2 -35
-7 -68 -12 -73 -10 -10 -244 83 -250 99 -2 6 21 14 51 18 91 13 193 24 204 22
6 -1 9 -29 7 -66z"/>
<path d="M9610 4611 c-136 -6 -145 -7 -145 -26 0 -19 7 -20 197 -21 109 -1
199 -5 199 -9 1 -5 -86 -65 -192 -135 l-194 -126 0 -64 0 -65 185 -3 c102 -1
248 1 325 5 135 8 140 9 143 31 2 13 -2 22 -10 23 -7 0 -105 0 -217 -1 -143
-1 -202 2 -199 10 2 6 95 70 208 144 l205 133 0 54 0 54 -180 1 c-99 0 -245
-2 -325 -5z"/>
<path d="M3082 4409 c-164 -19 -255 -99 -264 -234 -2 -22 1 -100 5 -174 l9
-133 111 6 c123 7 350 23 465 32 l74 6 -7 116 c-3 65 -11 142 -17 172 -30 165
-154 233 -376 209z m273 -193 c19 -8 41 -28 49 -45 17 -33 21 -77 7 -85 -8 -5
-187 -19 -428 -33 l-113 -6 0 51 c0 44 4 54 30 75 26 22 50 30 155 51 56 11
268 5 300 -8z"/>
<path d="M9456 4039 c-14 -42 -22 -150 -12 -158 6 -5 54 -14 106 -20 52 -6
174 -20 270 -31 96 -11 194 -22 217 -26 48 -7 48 -7 58 99 5 51 3 68 -7 72 -7
2 -96 13 -198 25 -292 32 -363 40 -397 46 -23 4 -34 2 -37 -7z"/>
<path d="M3360 3794 c-69 -36 -192 -100 -275 -141 -82 -42 -157 -83 -166 -90
-15 -13 -15 -19 0 -80 12 -47 22 -68 36 -73 11 -4 79 -10 150 -14 72 -3 212
-11 313 -18 110 -7 186 -8 191 -2 5 5 5 19 1 30 -7 18 -20 23 -80 29 -60 6
-73 11 -80 29 -17 40 -41 147 -35 157 4 5 30 21 58 36 29 14 55 30 58 35 7 11
-26 148 -39 159 -4 4 -63 -22 -132 -57z m10 -270 c9 -33 15 -65 13 -70 -4 -11
-264 -6 -277 6 -9 9 222 131 238 126 5 -1 17 -29 26 -62z"/>
<path d="M9426 3794 c-12 -31 -5 -41 55 -74 67 -38 65 -26 28 -152 l-20 -67
-72 -3 -72 -3 -22 -65 c-37 -111 -70 -100 306 -100 251 0 331 3 339 13 10 13
42 112 42 132 0 7 -51 41 -112 78 -62 36 -187 108 -278 161 -91 53 -170 96
-176 96 -7 0 -15 -7 -18 -16z m253 -188 c31 -18 80 -46 109 -61 28 -16 52 -32
52 -37 0 -4 -63 -8 -140 -8 -102 0 -140 3 -140 12 0 33 36 128 48 128 8 0 40
-15 71 -34z"/>
<path d="M3465 3281 c-63 -28 -95 -73 -95 -132 0 -27 -4 -49 -9 -49 -6 0 -22
11 -37 25 -81 75 -234 6 -234 -106 0 -60 123 -369 147 -369 8 0 138 47 291
106 152 58 283 107 291 110 7 2 11 12 8 22 -15 50 -139 318 -161 346 -48 64
-126 82 -201 47z m197 -171 c33 -25 55 -77 40 -92 -10 -10 -207 -88 -223 -88
-13 0 -39 56 -39 83 0 81 156 149 222 97z m-284 -123 c19 -15 44 -66 37 -77
-6 -10 -183 -80 -203 -80 -14 0 -34 44 -34 78 -1 67 143 124 200 79z"/>
<path d="M9264 3265 c-4 -8 -4 -21 -1 -27 4 -10 231 -100 335 -133 29 -10 10
-33 -30 -38 -72 -9 -405 -74 -415 -80 -13 -8 -58 -116 -51 -122 4 -5 185 -74
457 -177 122 -46 134 -49 149 -34 14 14 14 18 2 30 -13 11 -210 90 -343 137
-20 7 -36 18 -34 23 2 5 104 29 228 53 123 24 235 47 248 51 28 8 63 65 59 94
-2 13 -19 26 -53 38 -27 10 -129 48 -225 85 -232 89 -303 115 -313 115 -4 0
-10 -7 -13 -15z"/>
</g>
</svg>
